<svg version="1.1" xmlns="http://www.w3.org/2000/svg" xmlns:xlink="http://www.w3.org/1999/xlink" x="0px" y="0px" viewBox="0 0 48 48" enable-background="new 0 0 48 48" xml:space="preserve">
<g>
	<polygon fill="#CFD8DC" points="25,6 29.013,26.965 42,23 	"></polygon>
	<polygon fill="#CFD8DC" points="26.939,29.021 6.008,25.041 22.895,41.991 	"></polygon>
	<polygon fill="#CFD8DC" points="25,42 41.959,25.122 29.033,29.063 	"></polygon>
</g>
<g>
	<polygon fill="#90A4AE" points="31.465,12.465 29.863,10.863 26.148,11.998 26.526,13.973 	"></polygon>
	<polygon fill="#90A4AE" points="25.309,7.612 25.687,9.587 27.908,8.908 26.307,7.307 	"></polygon>
	<polygon fill="#90A4AE" points="42,23 40.434,21.434 28.643,25.033 29.013,26.965 	"></polygon>
	<polygon fill="#90A4AE" points="38.506,19.506 36.904,17.904 27.81,20.68 28.188,22.655 	"></polygon>
	<polygon fill="#90A4AE" points="34.97,15.971 33.369,14.369 26.976,16.32 27.354,18.295 	"></polygon>
</g>
<polygon fill="#8BC34A" points="22.963,6.015 6,23 26.978,26.984 "></polygon>
</svg>