<?xml version="1.0" encoding="utf-8"?>
<!-- Generator: Adobe Illustrator 19.2.1, SVG Export Plug-In . SVG Version: 6.00 Build 0)  -->
<svg version="1.1" id="图层_1" xmlns="http://www.w3.org/2000/svg" xmlns:xlink="http://www.w3.org/1999/xlink" x="0px" y="0px"
	 viewBox="0 0 80 70" style="enable-background:new 0 0 80 70;" xml:space="preserve">
<style type="text/css">
	.st0{fill:#B0C1D4;}
	.st1{fill:#66798F;}
	.st2{fill:#F7FAFC;}
	.st3{fill:#FFEEA3;}
	.st4{fill:#253137;}
	.st5{fill:#5EA7ED;}
	.st6{fill:#5496D5;}
	.st7{fill:#FA5959;}
	.st8{fill:#E95050;}
</style>
<g>
	<rect x="32.1" y="51.1" class="st0" width="15.8" height="13.7"/>
	<path class="st1" d="M47.4,51.6v12.6H32.7V51.6H47.4 M48.5,50.6H31.6v14.8h16.9V50.6L48.5,50.6z"/>
</g>
<g>
	<rect x="0.5" y="0.5" class="st2" width="79" height="55.9"/>
	<g>
		<path class="st1" d="M79,1.1v54.8H1V1.1H79 M80.1,0H0v56.9h80.1V0L80.1,0z"/>
	</g>
</g>
<rect x="1" y="48.5" class="st1" width="78.1" height="7.4"/>
<g>
	<path class="st0" d="M17.4,69c0.3-3,2.8-5.3,5.8-5.3h33.7c3,0,5.5,2.3,5.8,5.3H17.4z"/>
	<path class="st1" d="M36.8,64.3h20.1 M56.9,64.3c2.5,0,4.7,1.8,5.2,4.2H18c0.5-2.4,2.6-4.2,5.2-4.2h13.6 M56.9,63.2H23.2
		c-3.5,0-6.3,2.8-6.3,6.3l0,0h46.4l0,0C63.2,66.1,60.4,63.2,56.9,63.2L56.9,63.2z"/>
</g>
<rect x="69.6" y="51.6" class="st3" width="6.3" height="2.1"/>
<g>
	<g>
		<path class="st4" d="M36.1,21.5l-3.3,8.7h1.4l0.8-2.3h3.7l0.8,2.3H41l-3.3-8.7H36.1z M35.4,26.8l1.4-3.9l0,0l1.4,3.9H35.4z
			 M46.5,24.8c-0.5-0.7-1.2-1.1-1.9-1.1c-0.9,0-1.6,0.3-2.1,1s-0.7,1.4-0.7,2.3c0,1,0.2,1.8,0.7,2.3c0.5,0.7,1.2,1,2.1,1
			c0.8,0,1.5-0.3,1.9-0.9v0.7h1.2v-8.9h-1.2C46.5,21.3,46.5,24.8,46.5,24.8z M46.6,27.1c0,0.7-0.2,1.2-0.4,1.5
			c-0.3,0.5-0.7,0.7-1.3,0.7c-0.7,0-1.1-0.2-1.4-0.7c-0.3-0.4-0.3-0.9-0.3-1.6s0.2-1.2,0.4-1.6c0.3-0.5,0.7-0.7,1.4-0.7
			c0.5,0,0.9,0.2,1.2,0.6c0.3,0.5,0.5,1,0.5,1.6L46.6,27.1C46.7,27.1,46.6,27.1,46.6,27.1z M56.6,23.7c-0.5,0-0.8,0.1-1.1,0.2
			c-0.3,0.2-0.7,0.5-0.9,0.8c-0.4-0.7-1.1-1.1-1.9-1.1c-0.7,0-1.2,0.3-1.7,0.9v-0.7h-1.3v6.3H51v-3.8c0-0.5,0.2-0.8,0.4-1.1
			c0.2-0.3,0.6-0.5,1-0.5c0.8,0,1.3,0.5,1.3,1.5v3.9H55v-3.9c0-0.5,0.2-0.8,0.3-1.1c0.2-0.3,0.5-0.4,0.9-0.4c0.5,0,0.8,0.2,1.1,0.3
			c0.2,0.2,0.3,0.7,0.3,1.1V30h1.3v-4c0-0.7-0.2-1.2-0.7-1.7C57.8,23.9,57.2,23.7,56.6,23.7z M64.9,27.7c-0.2,0.5-0.3,0.8-0.7,1.1
			c-0.3,0.3-0.7,0.4-0.9,0.4c-0.5,0-0.8-0.2-1.1-0.4s-0.3-0.7-0.3-1.2v-3.8h-1.2v3.9c0,1.7,0.7,2.6,2.3,2.6c0.8,0,1.4-0.3,1.9-1v0.8
			h1.3v-6.3h-1.3V27.7L64.9,27.7z M69,23.2c0.2,0,0.5-0.1,0.7-0.3c0.2-0.2,0.3-0.4,0.3-0.7s-0.1-0.5-0.3-0.7
			c-0.2-0.2-0.3-0.3-0.7-0.3s-0.5,0.1-0.7,0.3c-0.2,0.2-0.3,0.3-0.3,0.7s0.1,0.5,0.3,0.7C68.6,23,68.8,23.2,69,23.2z M68.4,30.2h1.3
			v-6.3h-1.3V30.2z"/>
	</g>
	<g>
		<path class="st5" d="M27.7,33.2c-0.9-0.4-3.8-1.5-7.9-1.5s-7,1.1-7.9,1.5c-0.2,0.1-0.3,0-0.3-0.3c0.2-3.6,3.1-7.8,7.1-8.6
			c0.3-0.1,0.5,0.1,0.3,0.3c-1.4,1-2.5,3.6-2.5,4.2c0,0.7,2.1,0.9,3.3,0.9s3.3-0.3,3.3-0.9s-1.1-3.2-2.5-4.2c-0.2-0.2,0-0.4,0.3-0.3
			c4,0.7,6.9,5,7.1,8.6C28.1,33.2,27.9,33.3,27.7,33.2z"/>
		<path class="st6" d="M27.7,33.2c-0.9-0.4-3.8-1.5-7.9-1.5s-7,1.1-7.9,1.5c-0.1,0-0.2,0-0.2,0c2.3-1.9,4.9-2.3,7.2-2.6
			c2.7-0.3,4.2-1.2,4.2-1.8c0-0.6-1.1-3.2-2.5-4.2c-0.2-0.2,0-0.4,0.3-0.3c4,0.7,6.9,5,7.1,8.6C28.1,33.2,27.9,33.3,27.7,33.2z"/>
	</g>
	<g>
		<path class="st7" d="M19.8,16.9c2,0,3.6,1.6,3.6,3.6s-1.6,3.6-3.6,3.6s-3.6-1.6-3.6-3.6S17.8,16.9,19.8,16.9z"/>
		<path class="st8" d="M23.4,20.5c0,2-1.6,3.6-3.6,3.6c-0.7,0-1.3-0.2-1.9-0.5c0.4,0.2,0.8,0.2,1.3,0.2c2,0,3.6-1.6,3.6-3.6
			c0-1.3-0.7-2.4-1.7-3.1C22.5,17.6,23.4,18.9,23.4,20.5z"/>
	</g>
</g>
</svg>
