<?xml version="1.0" encoding="utf-8"?>
<!-- Generator: Adobe Illustrator 19.0.0, SVG Export Plug-In . SVG Version: 6.00 Build 0)  -->
<svg version="1.1" xmlns="http://www.w3.org/2000/svg" xmlns:xlink="http://www.w3.org/1999/xlink" viewBox="0 0 160 160" fill="#fff" style="enable-background:new 0 0 160 160;" xml:space="preserve">
<g>
	<path d="M157,159.7c-9-3.8-37-14.7-77-14.7s-68,10.8-77,14.7c-2.1,0.9-3.4-0.2-2.9-3.4
		c2.4-34.7,30.1-76,69.2-83.2c2.6-0.6,5.2,1,2.9,3.1c-13.8,9.8-24.1,35.2-24.1,40.7c0,6.6,20.4,9,31.9,9s31.9-2.4,31.9-9
		c0-5.5-10.3-30.9-24.1-40.7c-2.3-2.1,0.3-3.7,2.9-3.1c39.1,7.2,66.8,48.5,69.2,83.2C160.4,159.5,159.1,160.6,157,159.7z"/>
	<path id="XMLID_97_" class="st1" d="M157,159.7c-9-3.8-37-14.7-77-14.7s-68,10.8-77,14.7c-0.8,0.3-1.4,0.4-1.9,0.2
		C23.5,141.3,49,137.6,71,135c26.7-3.2,40.9-11.5,40.9-18.1c0-5.5-10.3-30.9-24.1-40.7c-2.3-2.1,0.3-3.7,2.9-3.1
		c39.1,7.2,66.8,48.5,69.2,83.2C160.4,159.5,159.1,160.6,157,159.7z"/>
</g>
<g>
	<path d="M80,0.2c19.4,0,35.1,15.7,35.1,35.1c0,19.4-15.7,35.1-35.1,35.1c-19.4,0-35.1-15.7-35.1-35.1
		C44.9,15.9,60.6,0.2,80,0.2z"/>
	<path d="M115.1,35.3c0,19.4-15.7,35.1-35.1,35.1c-6.8,0-13.1-1.9-18.5-5.2c3.9,1.5,8.2,2.4,12.7,2.4
		c19.4,0,35.1-15.7,35.1-35.1c0-12.6-6.7-23.7-16.7-29.9C105.8,7.7,115.1,20.4,115.1,35.3z"/>
</g>
</svg>
