<?xml version="1.0" encoding="utf-8"?>
<!-- Generator: Adobe Illustrator 19.2.1, SVG Export Plug-In . SVG Version: 6.00 Build 0)  -->
<svg version="1.1" id="admui_logo" xmlns="http://www.w3.org/2000/svg" xmlns:xlink="http://www.w3.org/1999/xlink" x="0px" y="0px"
	 viewBox="0 0 152.1 42.8" style="enable-background:new 0 0 152.1 42.8;" xml:space="preserve">
<style type="text/css">
	.st0{fill:#253137;}
	.st1{fill:#5EA7ED;}
	.st2{fill:#5496D5;}
	.st3{fill:#FA5959;}
	.st4{fill:#E95050;}
</style>
<g>
	<g>
		<path class="st0" d="M63.9,12.1l-8.6,22.6h3.7l2.1-5.9h9.6l2.1,5.9h3.7l-8.7-22.6H63.9z M62,26l3.7-10.2h0.1L69.5,26H62z M91,20.7
			c-1.3-1.9-3-2.8-5-2.8c-2.3,0-4.1,0.8-5.5,2.6c-1.3,1.7-1.8,3.6-1.8,6c0,2.6,0.6,4.6,1.8,6.1c1.4,1.7,3.2,2.6,5.6,2.6
			c2.2,0,3.9-0.8,5-2.4v1.9h3.1V11.6H91C91,11.5,91,20.7,91,20.7z M91.2,26.7c0,1.7-0.4,3-1,4c-0.8,1.2-1.9,1.7-3.3,1.7
			c-1.7,0-2.8-0.6-3.6-1.7c-0.7-1-0.9-2.4-0.9-4.2s0.4-3.2,1-4.1c0.8-1.2,1.9-1.7,3.7-1.7c1.3,0,2.3,0.5,3,1.5
			c0.8,1.2,1.3,2.6,1.3,4.2v0.4C91.4,26.7,91.2,26.7,91.2,26.7z M117.3,17.9c-1.2,0-2.1,0.3-2.8,0.6c-0.8,0.5-1.7,1.2-2.3,2.2
			c-1-1.8-2.8-2.8-5-2.8c-1.7,0-3.1,0.8-4.5,2.3v-1.8h-3.3v16.3h3.3v-9.8c0-1.2,0.4-2.2,1-2.8c0.6-0.8,1.5-1.3,2.6-1.3
			c2.2,0,3.3,1.3,3.3,3.9v10.1h3.3V24.6c0-1.3,0.4-2.2,0.9-2.8c0.6-0.7,1.4-1,2.3-1c1.3,0,2.2,0.4,2.8,0.9c0.6,0.6,0.8,1.7,0.8,2.8
			v10.1h3.3V23.9c0-1.8-0.6-3.2-1.7-4.4C120.3,18.4,118.9,17.9,117.3,17.9z M139,28.3c-0.4,1.2-0.8,2.2-1.7,2.8
			c-0.8,0.7-1.7,1-2.4,1c-1.3,0-2.2-0.4-2.8-1c-0.6-0.6-0.9-1.7-0.9-3v-9.9H128v10.2c0,4.4,1.9,6.7,5.9,6.7c2.1,0,3.7-0.9,5-2.7v2.2
			h3.3V18.3h-3.3L139,28.3C138.9,28.3,139,28.3,139,28.3z M149.7,16.4c0.6,0,1.2-0.3,1.7-0.7c0.5-0.5,0.7-1,0.7-1.7
			c0-0.7-0.3-1.3-0.7-1.7c-0.5-0.5-0.9-0.7-1.7-0.7s-1.3,0.3-1.7,0.7c-0.5,0.4-0.7,0.9-0.7,1.7s0.3,1.2,0.7,1.7
			C148.5,16.1,149,16.4,149.7,16.4z M148,34.7h3.3V18.3H148V34.7z"/>
	</g>
	<g>
		<path class="st1" d="M42,42.7c-2.4-1-9.9-3.9-20.6-3.9S3.2,41.7,0.8,42.7c-0.6,0.2-0.9-0.1-0.8-0.9c0.6-9.3,8-20.3,18.5-22.3
			c0.7-0.2,1.4,0.3,0.8,0.8c-3.7,2.6-6.4,9.4-6.4,10.9c0,1.8,5.4,2.4,8.5,2.4s8.5-0.7,8.5-2.4c0-1.5-2.8-8.3-6.4-10.9
			c-0.6-0.6,0.1-1,0.8-0.8c10.5,1.9,17.9,13,18.5,22.3C42.9,42.7,42.6,42.9,42,42.7z"/>
		<path class="st2" d="M42,42.7c-2.4-1-9.9-3.9-20.6-3.9S3.2,41.7,0.8,42.7c-0.2,0.1-0.4,0.1-0.5,0c6-5,12.8-6,18.7-6.7
			c7.1-0.8,10.9-3.1,10.9-4.8c0-1.5-2.8-8.3-6.4-10.9c-0.6-0.6,0.1-1,0.8-0.8c10.5,1.9,17.9,13,18.5,22.3
			C42.9,42.7,42.6,42.9,42,42.7z"/>
	</g>
	<g>
		<path class="st3" d="M21.4,0c5.2,0,9.4,4.2,9.4,9.4s-4.2,9.4-9.4,9.4S12,14.6,12,9.4S16.2,0,21.4,0z"/>
		<path class="st4" d="M30.8,9.4c0,5.2-4.2,9.4-9.4,9.4c-1.8,0-3.5-0.5-4.9-1.4c1.1,0.4,2.2,0.6,3.4,0.6c5.2,0,9.4-4.2,9.4-9.4
			c0-3.4-1.8-6.3-4.5-8C28.3,2,30.8,5.4,30.8,9.4z"/>
	</g>
</g>
</svg>
